<svg width="34" height="34" viewBox="0 0 34 34" fill="none" xmlns="http://www.w3.org/2000/svg"><path d="M17.044 31.8741C15.8835 31.9037 14.9368 31.2228 14.8146 30.3644C14.723 29.6835 14.723 28.9879 14.7383 28.3071C14.8299 25.3322 13.2876 23.0232 11.5163 20.8327C10.7376 19.8707 9.56183 19.4267 8.27918 19.3971C7.16449 19.3675 6.03453 19.3823 4.91984 19.3675C4.41594 19.3527 3.89679 19.3527 3.40816 19.2491C2.75156 19.1159 2.14075 18.3758 2.12548 17.7542C2.11021 17.103 2.46141 16.5701 3.04166 16.3481C4.55336 15.7857 6.06508 15.1789 7.63786 14.8385C10.9056 14.128 12.6005 11.9375 13.6541 9.12539C13.8832 8.53337 13.7457 7.79333 13.7305 7.1273C13.6999 5.85444 13.5778 4.58161 13.6236 3.30875C13.6388 2.68713 14.1122 2.22828 14.7993 2.13948C15.4865 2.05067 16.0209 2.37629 16.2652 2.95352C16.6623 3.94516 17.0898 4.9664 17.2883 6.01725C18.3114 11.2419 23.2282 14.9717 28.7253 14.6313C29.2292 14.6017 29.7331 14.4833 30.237 14.5129C30.8631 14.5425 31.4433 14.8089 31.7029 15.4157C32.0083 16.1113 31.9167 16.8218 31.3517 17.325C30.9242 17.7098 30.3592 18.0206 29.7942 18.1686C25.6103 19.2343 22.8159 22.076 20.2354 25.1398C19.5788 25.9242 19.4261 27.123 19.0749 28.1443C18.7695 29.0767 18.6168 30.0684 18.1892 30.9416C17.9907 31.3856 17.3341 31.6521 17.044 31.8741ZM22.8923 17.5618C21.518 16.6885 20.2964 16.0225 19.197 15.2085C18.1129 14.3945 17.1356 13.4324 16.0667 12.4852C14.7383 13.98 13.5167 15.3565 12.1882 16.8514C14.1275 18.0206 15.2269 19.6635 16.2805 21.3508C16.5707 21.8096 16.9982 22.1796 17.4563 22.6976C18.4488 21.706 19.2886 20.8624 20.159 20.0335C21.0294 19.2195 21.915 18.4498 22.8923 17.5618Z" fill="#EA7575"></path></svg>