<svg width="24" height="24" viewBox="0 0 24 24" fill="none" xmlns="http://www.w3.org/2000/svg"><path fill-rule="evenodd" clip-rule="evenodd" d="M12.8854 4.04858C10.4893 3.77207 8.06879 4.59589 6.33234 6.33234C4.59592 8.06876 3.7721 10.4892 4.04857 12.8852C4.11187 13.4339 3.71843 13.93 3.16978 13.9933C2.62114 14.0566 2.12506 13.6631 2.06175 13.1145C1.71594 10.1175 2.74604 7.09021 4.91813 4.91813C7.09025 2.74601 10.1176 1.71591 13.1146 2.06177C13.6633 2.12508 14.0567 2.62117 13.9934 3.16981C13.9301 3.71846 13.434 4.11189 12.8854 4.04858ZM17.1263 4.54799C17.4863 4.1292 18.1177 4.08157 18.5365 4.44162C21.3811 6.88721 22.6171 10.7195 21.7374 14.3663C20.8577 18.013 18.0104 20.8603 14.3636 21.74C10.7169 22.6197 6.88459 21.3837 4.439 18.5391C4.07895 18.1203 4.12657 17.489 4.54536 17.1289C4.96415 16.7689 5.59552 16.8165 5.95557 17.2353C7.91188 19.5108 10.9775 20.4995 13.8946 19.7958C16.8118 19.0921 19.0895 16.8144 19.7932 13.8973C20.4969 10.9801 19.5081 7.91451 17.2326 5.95819C16.8139 5.59815 16.7662 4.96678 17.1263 4.54799ZM15.7303 9.35823L15.6473 9.27364C15.2876 8.90707 14.6975 8.90707 14.3471 9.28304L11.055 12.5726L9.65294 11.1627C9.2933 10.7962 8.71235 10.7962 8.35272 11.1627L8.26973 11.2473C7.91009 11.6139 7.91009 12.206 8.26973 12.5726L10.4003 14.725C10.7599 15.0915 11.3409 15.0915 11.7005 14.725L15.7303 10.6835C16.0899 10.3169 16.0899 9.72479 15.7303 9.35823Z" fill="#D42525"></path></svg>